# xmcd CD database file
# Copyright (C) 1996 Ti Kan
#
# Track frame offsets:
# 	150
# 	20432
# 	37987
# 	54427
# 	71142
# 	84690
# 	100565
# 	118470
# 	133987
# 	149900
# 	166440
# 	185637
#
# Disc length: 2679 seconds
#
# Revision: 1
# Processed by: cddbd v1.4b41PL1 Copyright (c) Steve Scherf et al.
# Submitted via: DiscPlay 3.4.1
#
DISCID=b70a750c
DTITLE=Flying Emus - Postcards From Paradise
DYEAR=1900
DGENRE=
TTITLE0=Common Ground
TTITLE1=Just The Opposite
TTITLE2=I Don't Know About That
TTITLE3=Some Days
TTITLE4=You Can Be Whatever You Want
TTITLE5=Postcards From Paradise
TTITLE6=Broken Dreams (Southbound)
TTITLE7=Different Drum
TTITLE8=Love Is Just A Loan
TTITLE9=Nightmares
TTITLE10=Seaside Fantasy #1 (I Didn't Know You)
TTITLE11=I Just Want To Dance With You
EXTD=
EXTT0=
EXTT1=
EXTT2=
EXTT3=
EXTT4=
EXTT5=
EXTT6=
EXTT7=
EXTT8=
EXTT9=
EXTT10=
EXTT11=
PLAYORDER=
